<?xml version="1.0" encoding="UTF-8"?>
<svg version="1.1" xmlns="http://www.w3.org/2000/svg" width="358" height="320">
<path d="M0 0 C7.03023386 4.99051417 12.21486954 10.49704729 14.83203125 18.74609375 C25.41215429 18.63798457 35.99221713 18.52523582 46.57222939 18.40675449 C51.48628351 18.35186568 56.40034382 18.29850497 61.31445312 18.2487793 C66.06722924 18.20062754 70.81994308 18.14827534 75.57264328 18.093153 C77.37526245 18.07295684 79.17789852 18.05421014 80.98054886 18.03701973 C86.59911774 17.98286359 92.21505838 17.89085244 97.83203125 17.74609375 C98.53952263 17.73071941 99.24701401 17.71534508 99.97594452 17.69950485 C101.93177845 17.64894971 103.88668173 17.56552409 105.84130859 17.48022461 C107.46738541 17.41598549 107.46738541 17.41598549 109.12631226 17.35044861 C112.484486 16.60036014 113.35744939 15.52146177 115.20703125 12.68359375 C115.63371094 11.8740625 116.06039062 11.06453125 116.5 10.23046875 C120.3027712 3.13791014 126.17228151 -1.25867196 133.76953125 -3.6328125 C144.2838151 -5.76517364 153.68913318 -4.62647774 163.01953125 0.49609375 C171.57543587 7.34081745 176.28699164 15.93081647 177.83203125 26.74609375 C178.52544727 35.4831356 176.49117668 43.89554929 170.83203125 50.74609375 C162.17110403 59.35743551 155.21431632 62.89831979 142.89453125 62.87109375 C141.73050781 62.87367187 140.56648437 62.87625 139.3671875 62.87890625 C135.83203125 62.74609375 135.83203125 62.74609375 132.1953125 61.94140625 C128.74881288 61.37765123 128.74881288 61.37765123 126.27734375 63.66796875 C125.51164063 64.60125 124.7459375 65.53453125 123.95703125 66.49609375 C123.53558838 66.99616943 123.11414551 67.49624512 122.67993164 68.01147461 C121.37369583 69.57187043 120.10148229 71.15570021 118.83203125 72.74609375 C118.06503906 73.68066406 117.29804688 74.61523438 116.5078125 75.578125 C115.02264622 77.38987234 113.54468813 79.20755399 112.07421875 81.03125 C109.05989194 84.6810011 105.88489063 88.17014776 102.6796875 91.65234375 C100.69257786 93.80942638 100.69257786 93.80942638 98.83203125 96.74609375 C99.09445927 99.96083702 99.64005595 102.94033825 100.38671875 106.07421875 C102.66503615 115.99894385 101.71378642 124.70745008 96.83203125 133.74609375 C91.58262687 141.35373309 84.75621495 146.32488665 75.83203125 148.74609375 C73.11971297 148.93201879 70.53795592 149.0266117 67.83203125 148.99609375 C67.14625 149.00382813 66.46046875 149.0115625 65.75390625 149.01953125 C61.38078631 149.00283995 57.91749386 148.23441177 53.83203125 146.74609375 C49.99918193 146.82431516 48.36594793 147.28242927 45.45703125 149.80859375 C44.59078125 150.77796875 43.72453125 151.74734375 42.83203125 152.74609375 C39.04378614 156.64888623 35.22278913 160.46654961 31.08203125 163.99609375 C30.44007813 164.56328125 29.798125 165.13046875 29.13671875 165.71484375 C27.86250052 166.83788355 26.58225872 167.95457767 25.27832031 169.04296875 C18.02072152 174.71120815 18.02072152 174.71120815 14.51171875 182.68359375 C15.07855856 185.47896814 15.89855004 188.05400061 16.83203125 190.74609375 C18.00238948 200.8038598 14.94031016 209.82892538 8.83203125 217.74609375 C1.92432063 224.78819563 -6.79497392 228.8101068 -16.66796875 229.24609375 C-26.60891794 228.80710597 -35.14463824 224.72843206 -42.16796875 217.74609375 C-49.76451888 208.24225528 -51.22849969 199.85718011 -50.44482422 187.96533203 C-49.35386482 179.22034 -44.0312705 172.87538478 -37.609375 167.26953125 C-35.16796875 165.74609375 -35.16796875 165.74609375 -28.16796875 163.74609375 C-28.16796875 129.75609375 -28.16796875 95.76609375 -28.16796875 60.74609375 C-29.81796875 60.41609375 -31.46796875 60.08609375 -33.16796875 59.74609375 C-41.37439773 54.95068482 -47.09551498 47.70628934 -50.16796875 38.74609375 C-52.02155792 28.0431111 -50.82012658 19.04162857 -45.16796875 9.74609375 C-35.23413672 -4.32683496 -14.97781773 -8.66284593 0 0 Z M11.22680664 45.06713867 C10.42780018 46.9598081 9.62949432 48.85277351 8.83203125 50.74609375 C5.33030497 54.57769185 2.09982612 57.32349546 -2.859375 58.9765625 C-4.78538259 59.95273514 -4.78538259 59.95273514 -6.16796875 61.74609375 C-7.32343308 66.82351202 -7.14740437 71.94287841 -7.10546875 77.12109375 C-7.11546659 78.74651885 -7.12816863 80.37192914 -7.14331055 81.99731445 C-7.1708717 85.71767771 -7.17399633 89.43726683 -7.16503906 93.15771484 C-7.15763959 98.64844313 -7.20773357 104.13759899 -7.27387524 109.62781143 C-7.35025943 115.98160991 -7.40356655 122.33541809 -7.44802856 128.68951416 C-7.46813371 131.52161587 -7.49563328 134.35350774 -7.52877808 137.18548584 C-7.57419434 141.1992857 -7.58551005 145.21251419 -7.59375 149.2265625 C-7.61118256 150.44680618 -7.62861511 151.66704987 -7.64657593 152.92427063 C-7.64372589 154.04391708 -7.64087585 155.16356354 -7.63793945 156.31713867 C-7.64380569 157.29728439 -7.64967194 158.27743011 -7.65571594 159.28727722 C-7.38012574 161.8825693 -7.38012574 161.8825693 -5.29598999 163.59269714 C-3.20155336 164.96498387 -3.20155336 164.96498387 -0.6496582 164.62939453 C2.07840085 163.65840411 3.47562114 162.62599833 5.5390625 160.61328125 C6.20873047 159.97132813 6.87839844 159.329375 7.56835938 158.66796875 C8.25349609 157.9925 8.93863281 157.31703125 9.64453125 156.62109375 C11.00390758 155.30464509 12.36458351 153.98953706 13.7265625 152.67578125 C14.39510254 152.02577148 15.06364258 151.37576172 15.75244141 150.70605469 C18.52997256 148.08830168 21.43452761 145.63419956 24.36987305 143.19580078 C24.85238525 142.71739746 25.33489746 142.23899414 25.83203125 141.74609375 C25.83203125 141.08609375 25.83203125 140.42609375 25.83203125 139.74609375 C26.70214844 139.34390625 26.70214844 139.34390625 27.58984375 138.93359375 C31.44189841 136.89348118 34.5493519 134.50661718 36.83203125 130.74609375 C36.83648958 128.04434838 36.27108512 125.87657363 35.53515625 123.28125 C33.44070288 115.729582 34.96274063 107.90877143 37.83203125 100.74609375 C39.26782509 98.47649255 40.78731276 96.44536521 42.52734375 94.40234375 C44.04704631 92.66544269 44.04704631 92.66544269 44.83203125 89.74609375 C46.6171875 88.6875 46.6171875 88.6875 48.83203125 87.74609375 C49.55261719 87.40449219 50.27320313 87.06289062 51.015625 86.7109375 C51.75941406 86.37191406 52.50320312 86.03289062 53.26953125 85.68359375 C54.01074219 85.34199219 54.75195312 85.00039062 55.515625 84.6484375 C59.91301645 82.93545702 64.01343109 82.60890258 68.70703125 82.62109375 C69.69445312 82.61851562 70.681875 82.6159375 71.69921875 82.61328125 C74.83203125 82.74609375 74.83203125 82.74609375 78.38671875 83.578125 C81.94886032 84.12717391 81.94886032 84.12717391 84.53515625 81.640625 C85.375625 80.62355469 86.21609375 79.60648438 87.08203125 78.55859375 C88.03051775 77.44208586 88.97975831 76.3262182 89.9296875 75.2109375 C90.40809082 74.63456543 90.88649414 74.05819336 91.37939453 73.46435547 C93.22513142 71.28111241 95.16468322 69.19877529 97.12060547 67.11450195 C101.00842376 62.96410326 104.7996404 58.72606183 108.45703125 54.37109375 C109.40449219 53.24574219 109.40449219 53.24574219 110.37109375 52.09765625 C112.49048461 48.68623032 113.22530101 45.51481957 112.34619141 41.56103516 C112.17651855 40.96210449 112.0068457 40.36317383 111.83203125 39.74609375 C99.4365691 39.49104568 87.04173242 39.29568575 74.64417934 39.17615986 C68.88708667 39.11878683 63.13179081 39.04099837 57.37573242 38.91625977 C51.81885756 38.79659349 46.26370861 38.73093985 40.70564461 38.70244408 C38.58713667 38.682143 36.46872168 38.64249522 34.35095024 38.58306313 C20.99810443 37.53961161 20.99810443 37.53961161 11.22680664 45.06713867 Z " fill="#FDFCFD" transform="translate(117.16796875,51.25390625)"/>
<path d="M0 0 C8.55590462 6.8447237 13.26746039 15.43472272 14.8125 26.25 C15.50591602 34.98704185 13.47164543 43.39945554 7.8125 50.25 C-0.84842722 58.86134176 -7.80521493 62.40222604 -20.125 62.375 C-21.28902344 62.37757812 -22.45304687 62.38015625 -23.65234375 62.3828125 C-27.1875 62.25 -27.1875 62.25 -30.82421875 61.4453125 C-34.27071837 60.88155748 -34.27071837 60.88155748 -36.7421875 63.171875 C-37.50789063 64.10515625 -38.27359375 65.0384375 -39.0625 66 C-39.48394287 66.50007568 -39.90538574 67.00015137 -40.33959961 67.51538086 C-41.64583542 69.07577668 -42.91804896 70.65960646 -44.1875 72.25 C-44.95449219 73.18457031 -45.72148437 74.11914062 -46.51171875 75.08203125 C-47.99804626 76.89519518 -49.47729278 78.71418802 -50.94921875 80.5390625 C-53.9325804 84.1524185 -57.07152912 87.60950838 -60.2421875 91.05859375 C-62.01278214 93.05317928 -63.62378241 95.09128295 -65.1875 97.25 C-67.1675 96.26 -67.1675 96.26 -69.1875 95.25 C-69.1875 94.59 -69.1875 93.93 -69.1875 93.25 C-69.75984375 92.98445313 -70.3321875 92.71890625 -70.921875 92.4453125 C-73.2951012 91.19323109 -75.30963286 89.7563648 -77.4375 88.125 C-78.14390625 87.58617187 -78.8503125 87.04734375 -79.578125 86.4921875 C-80.10921875 86.08226562 -80.6403125 85.67234375 -81.1875 85.25 C-80.59550458 82.02221543 -79.64191658 80.28676269 -77.4375 77.875 C-76.81230469 77.1840625 -76.18710938 76.493125 -75.54296875 75.78125 C-73.73673136 73.84021878 -71.92654824 71.90319656 -70.11328125 69.96875 C-56.27258003 56.72762656 -56.27258003 56.72762656 -51.1875 39.25 C-99.2025 39.745 -99.2025 39.745 -148.1875 40.25 C-148.1875 32.99 -148.1875 25.73 -148.1875 18.25 C-145.74649902 18.22494385 -143.30549805 18.1998877 -140.79052734 18.17407227 C-132.67607512 18.09015535 -124.56167906 18.00153041 -116.44730186 17.91066074 C-111.53324774 17.85577193 -106.61918743 17.80241122 -101.70507812 17.75268555 C-96.95230201 17.70453379 -92.19958817 17.65218159 -87.44688797 17.59705925 C-85.6442688 17.57686309 -83.84163273 17.55811639 -82.03898239 17.54092598 C-76.42041351 17.48676984 -70.80447287 17.39475869 -65.1875 17.25 C-64.12626293 17.2269385 -64.12626293 17.2269385 -63.04358673 17.2034111 C-61.0877528 17.15285596 -59.13284952 17.06943034 -57.17822266 16.98413086 C-56.09417145 16.94130478 -55.01012024 16.8984787 -53.89321899 16.85435486 C-50.53504525 16.10426639 -49.66208186 15.02536802 -47.8125 12.1875 C-47.17248047 10.97320312 -47.17248047 10.97320312 -46.51953125 9.734375 C-42.71676005 2.64181639 -36.84724974 -1.75476571 -29.25 -4.12890625 C-18.73571615 -6.26126739 -9.33039807 -5.12257149 0 0 Z " fill="#FA74BD" transform="translate(280.1875,51.75)"/>
<path d="M0 0 C2.11909187 0.03384395 2.11909187 0.03384395 4.23046875 -0.15625 C5.02533691 -0.20990723 5.82020508 -0.26356445 6.63916016 -0.31884766 C7.4801123 -0.37862793 8.32106445 -0.4384082 9.1875 -0.5 C16.20514679 -0.92928129 23.104349 -1.0324517 30.125 -0.625 C30.8883667 -0.58181641 31.6517334 -0.53863281 32.43823242 -0.49414062 C37.71784327 -0.14107836 37.71784327 -0.14107836 40 1 C41.57471314 5.30974123 42.73882132 8.6529467 41 13 C39.66980894 14.76763644 38.24461445 16.39229577 36.75 18.0234375 C34.18965402 20.91525684 31.97065787 24.05002784 29.7109375 27.1796875 C27.81238063 29.1996133 26.70639718 29.63363182 24 30 C24 30.66 24 31.32 24 32 C21.7234245 34.34556264 19.38979525 36.62340499 17.0390625 38.89453125 C15.13890899 40.85852391 13.46203074 42.68963043 12 45 C12.04239934 48.46631586 12.04239934 48.46631586 14 51 C15.32626542 51.36042882 16.66103173 51.69007606 18 52 C19.44545269 52.80449466 20.86300412 53.66095268 22.25 54.5625 C22.95640625 55.01753906 23.6628125 55.47257812 24.390625 55.94140625 C24.92171875 56.29074219 25.4528125 56.64007813 26 57 C25.34 57.99 24.68 58.98 24 60 C22.68 59.34 21.36 58.68 20 58 C20 57.34 20 56.68 20 56 C19.42765625 55.73445313 18.8553125 55.46890625 18.265625 55.1953125 C15.8923988 53.94323109 13.87786714 52.5063648 11.75 50.875 C11.04359375 50.33617187 10.3371875 49.79734375 9.609375 49.2421875 C9.07828125 48.83226562 8.5471875 48.42234375 8 48 C8.59199542 44.77221543 9.54558342 43.03676269 11.75 40.625 C12.37519531 39.9340625 13.00039062 39.243125 13.64453125 38.53125 C15.45076864 36.59021878 17.26095176 34.65319656 19.07421875 32.71875 C32.91491997 19.47762656 32.91491997 19.47762656 38 2 C13.91 2 -10.18 2 -35 2 C-35 1.67 -35 1.34 -35 1 C-28.4184668 0.20752968 -21.8704856 -0.30389228 -15.25 -0.625 C-14.33089844 -0.6765625 -13.41179687 -0.728125 -12.46484375 -0.78125 C-11.57410156 -0.82507813 -10.68335938 -0.86890625 -9.765625 -0.9140625 C-8.96930664 -0.9548291 -8.17298828 -0.9955957 -7.35253906 -1.03759766 C-4.79375153 -0.99670379 -2.50473102 -0.50327665 0 0 Z " fill="#E97BB1" transform="translate(191,89)"/>
<path d="M0 0 C4.80901941 3.84721553 9.16333898 8.64001196 11.8125 14.25 C11.3175 15.735 11.3175 15.735 10.8125 17.25 C6.8125 11.5 6.8125 11.5 6.8125 9.25 C6.19375 9.1675 5.575 9.085 4.9375 9 C2.8125 8.25 2.8125 8.25 1.8125 6.375 C1.3175 5.323125 1.3175 5.323125 0.8125 4.25 C-2.07137123 1.56501644 -4.37707676 0.95192007 -8.1875 0.25 C-8.8475 -0.41 -9.5075 -1.07 -10.1875 -1.75 C-12.86166144 -2.00272295 -15.38755242 -2.12026558 -18.0625 -2.125 C-18.78308594 -2.14949219 -19.50367188 -2.17398438 -20.24609375 -2.19921875 C-23.84610152 -2.2191083 -25.71324087 -2.17502808 -28.4453125 0.2734375 C-29.30769531 1.25183594 -29.30769531 1.25183594 -30.1875 2.25 C-31.5075 2.25 -32.8275 2.25 -34.1875 2.25 C-36.36580059 3.69058613 -36.36580059 3.69058613 -38.375 5.625 C-39.06980469 6.25148438 -39.76460937 6.87796875 -40.48046875 7.5234375 C-42.2685507 9.15307943 -42.2685507 9.15307943 -43.1875 11.25 C-44.1775 11.58 -45.1675 11.91 -46.1875 12.25 C-46.628178 13.56919093 -47.01737707 14.90591382 -47.375 16.25 C-48.3671875 18.43359375 -48.3671875 18.43359375 -50.1875 20.25 C-57.86328315 21.93800045 -65.48078973 21.52941465 -73.1875 20.25 C-73.1875 19.26 -73.1875 18.27 -73.1875 17.25 C-72.55247559 17.26683838 -71.91745117 17.28367676 -71.26318359 17.30102539 C-68.36161358 17.35156341 -65.46440541 17.33262671 -62.5625 17.3125 C-61.56347656 17.34021484 -60.56445312 17.36792969 -59.53515625 17.39648438 C-53.83459918 17.36789295 -53.83459918 17.36789295 -49.26733398 14.3269043 C-47.75470069 12.02564729 -46.45727988 9.69182293 -45.1875 7.25 C-34.00320681 -7.02734422 -15.3842541 -8.44625716 0 0 Z " fill="#EA82B7" transform="translate(280.1875,51.75)"/>
<path d="M0 0 C0 0.99 0 1.98 0 3 C-1.29035156 2.98839844 -2.58070313 2.97679688 -3.91015625 2.96484375 C-5.62760271 2.9554588 -7.34505075 2.94635936 -9.0625 2.9375 C-9.91005859 2.92912109 -10.75761719 2.92074219 -11.63085938 2.91210938 C-16.52680252 2.89320612 -21.1572049 3.17786502 -26 4 C-28.67081792 4.39148797 -31.31231502 4.72196362 -34 5 C-34.495 4.505 -34.495 4.505 -35 4 C-36.45667689 3.92745633 -37.9166725 3.91626222 -39.375 3.9375 C-40.16648438 3.94652344 -40.95796875 3.95554687 -41.7734375 3.96484375 C-42.50820312 3.97644531 -43.24296875 3.98804687 -44 4 C-44.99 4 -45.98 4 -47 4 C-47.33 3.67 -47.66 3.34 -48 3 C-54.68199776 2.67074214 -61.42955684 2.65604572 -68 4 C-69.33901792 5.11126659 -69.33901792 5.11126659 -69.09765625 7.94140625 C-69.08605469 9.13636719 -69.07445312 10.33132812 -69.0625 11.5625 C-69.05347656 12.76003906 -69.04445312 13.95757812 -69.03515625 15.19140625 C-69.02355469 16.11824219 -69.01195312 17.04507813 -69 18 C-64.545 18.99 -64.545 18.99 -60 20 C-60 20.66 -60 21.32 -60 22 C-64.62 22.33 -69.24 22.66 -74 23 C-74 15.74 -74 8.48 -74 1 C-64.79456486 0.86939196 -55.58912725 0.73896245 -46.38368511 0.60884857 C-42.10938548 0.54842652 -37.835087 0.48792576 -33.56079102 0.42724609 C-29.43704801 0.36870662 -25.31330215 0.31037262 -21.18955421 0.25218201 C-19.61506865 0.22992799 -18.04058414 0.20759953 -16.46610069 0.18519592 C-14.26345462 0.15386671 -12.06080498 0.12280051 -9.8581543 0.09179688 C-7.97618599 0.06514954 -7.97618599 0.06514954 -6.05619812 0.03796387 C-4.03758148 0.01288876 -2.01877237 0 0 0 Z " fill="#E67FB2" transform="translate(206,69)"/>
<path d="M0 0 C0.33 0.99 0.66 1.98 1 3 C-0.98 3.99 -0.98 3.99 -3 5 C-2.01 3.35 -1.02 1.7 0 0 Z M-4 5 C-4 8.56672638 -4.85525395 9.70103631 -6.8125 12.625 C-7.33457031 13.42164062 -7.85664063 14.21828125 -8.39453125 15.0390625 C-10 17 -10 17 -13 18 C-13 18.66 -13 19.32 -13 20 C-15.2765755 22.34556264 -17.61020475 24.62340499 -19.9609375 26.89453125 C-21.86109101 28.85852391 -23.53796926 30.68963043 -25 33 C-24.95760066 36.46631586 -24.95760066 36.46631586 -23 39 C-21.67373458 39.36042882 -20.33896827 39.69007606 -19 40 C-17.55454731 40.80449466 -16.13699588 41.66095268 -14.75 42.5625 C-14.04359375 43.01753906 -13.3371875 43.47257812 -12.609375 43.94140625 C-11.81273437 44.46541016 -11.81273437 44.46541016 -11 45 C-11.66 45.99 -12.32 46.98 -13 48 C-14.32 47.34 -15.64 46.68 -17 46 C-17 45.34 -17 44.68 -17 44 C-17.57234375 43.73445313 -18.1446875 43.46890625 -18.734375 43.1953125 C-21.1076012 41.94323109 -23.12213286 40.5063648 -25.25 38.875 C-25.95640625 38.33617187 -26.6628125 37.79734375 -27.390625 37.2421875 C-27.92171875 36.83226562 -28.4528125 36.42234375 -29 36 C-28.40800458 32.77221543 -27.45441658 31.03676269 -25.25 28.625 C-24.62996094 27.94050781 -24.00992188 27.25601563 -23.37109375 26.55078125 C-21.5093539 24.54795403 -19.64748069 22.54525233 -17.78515625 20.54296875 C-17.21442383 19.92921387 -16.64369141 19.31545898 -16.05566406 18.68310547 C-14.91310904 17.45701911 -13.76801268 16.23329494 -12.62011719 15.01220703 C-9.59336351 11.77986596 -6.71363118 8.50593225 -4 5 Z " fill="#E27FAE" transform="translate(228,101)"/>
<path d="M0 0 C0.99 0.33 1.98 0.66 3 1 C5.22818441 1.06937062 7.45834524 1.08457084 9.6875 1.0625 C10.86699219 1.05347656 12.04648437 1.04445313 13.26171875 1.03515625 C14.16535156 1.02355469 15.06898438 1.01195313 16 1 C15.67 1.66 15.34 2.32 15 3 C12.81257121 3.02730494 10.62504093 3.04653255 8.4375 3.0625 C7.21933594 3.07410156 6.00117188 3.08570312 4.74609375 3.09765625 C1 3 1 3 -2.66015625 2.19921875 C-6.08625477 1.6330428 -6.08625477 1.6330428 -8.5546875 3.921875 C-9.32039063 4.85515625 -10.08609375 5.7884375 -10.875 6.75 C-11.29644287 7.25007568 -11.71788574 7.75015137 -12.15209961 8.26538086 C-13.45833542 9.82577668 -14.73054896 11.40960646 -16 13 C-16.76699219 13.93457031 -17.53398437 14.86914062 -18.32421875 15.83203125 C-19.8064221 17.64016413 -21.28179871 19.45391661 -22.75 21.2734375 C-26.35688653 25.64428264 -30.16939044 29.82526949 -34 34 C-35 32 -35 32 -34.75 29.9375 C-34.5025 29.298125 -34.255 28.65875 -34 28 C-33.01 27.67 -32.02 27.34 -31 27 C-29.21134968 24.97687154 -29.21134968 24.97687154 -27.5 22.5625 C-25.3870074 19.6756702 -24.01523684 18.01015789 -21 16 C-19.95355934 14.36209288 -18.9601817 12.68991979 -18 11 C-13.23043089 3.10554078 -9.31986277 -0.91670781 0 0 Z " fill="#E16FAA" transform="translate(252,111)"/>
<path d="M0 0 C3.37419646 5.06129469 3.59155759 11.0210429 3 17 C0.74076318 27.73137488 -4.43838101 34.30746685 -13 41 C-15.09375 42.296875 -15.09375 42.296875 -17 43 C-17.99 42.67 -18.98 42.34 -20 42 C-19.46890625 41.69707031 -18.9378125 41.39414063 -18.390625 41.08203125 C-14.0370187 38.50005671 -10.9741076 36.18578107 -8 32 C-7.2265625 31.319375 -7.2265625 31.319375 -6.4375 30.625 C-4.20992882 28.10687605 -3.25806526 25.08797837 -2 22 C-1.67 21.67 -1.34 21.34 -1 21 C0.11401657 14.87290885 0.00010496 9.08030999 -0.84375 2.93359375 C-0.92109375 1.97646484 -0.92109375 1.97646484 -1 1 C-0.67 0.67 -0.34 0.34 0 0 Z " fill="#E67CAF" transform="translate(292,69)"/>
<path d="M0 0 C10.72438314 -0.44753995 19.36923932 0.09539145 28 7 C31.49310271 10.5872795 34.85139869 14.45002075 37 19 C36.505 20.485 36.505 20.485 36 22 C32 16.25 32 16.25 32 14 C31.38125 13.9175 30.7625 13.835 30.125 13.75 C28 13 28 13 27 11.125 C26.67 10.42375 26.34 9.7225 26 9 C23.11612877 6.31501644 20.81042324 5.70192007 17 5 C16.34 4.34 15.68 3.68 15 3 C12.43083343 2.69400937 9.95241616 2.48912913 7.375 2.375 C6.66859375 2.33632813 5.9621875 2.29765625 5.234375 2.2578125 C3.49001476 2.16352276 1.74504309 2.08067109 0 2 C0 1.34 0 0.68 0 0 Z " fill="#E27BAD" transform="translate(255,47)"/>
<path d="M0 0 C3.58984666 3.58984666 3.06448348 9.01854951 3.125 13.875 C3.09652327 15.5836041 3.05501084 17.29204429 3 19 C2.98324219 19.77859375 2.96648437 20.5571875 2.94921875 21.359375 C2.58966499 27.31769446 0.51949873 31.23374157 -3 36 C-3.33 34.68 -3.66 33.36 -4 32 C-3.01 31.67 -2.02 31.34 -1 31 C-0.14785221 23.93111222 0.12746455 16.9911168 0.0625 9.875 C0.05798828 8.91851562 0.05347656 7.96203125 0.04882812 6.9765625 C0.03720017 4.65097242 0.02086102 2.3255224 0 0 Z " fill="#FDE6F7" transform="translate(130,66)"/>
<path d="M0 0 C0.99 0.66 1.98 1.32 3 2 C2.67 2.66 2.34 3.32 2 4 C2.59742124 6.61880754 2.59742124 6.61880754 4 9 C5.32653176 9.35944732 6.66135401 9.68868698 8 10 C9.44545269 10.80449466 10.86300412 11.66095268 12.25 12.5625 C12.95640625 13.01753906 13.6628125 13.47257813 14.390625 13.94140625 C14.92171875 14.29074219 15.4528125 14.64007813 16 15 C15.01 16.485 15.01 16.485 14 18 C12.68 17.34 11.36 16.68 10 16 C10 15.34 10 14.68 10 14 C9.42765625 13.73445312 8.8553125 13.46890625 8.265625 13.1953125 C5.8923988 11.94323109 3.87786714 10.5063648 1.75 8.875 C1.04359375 8.33617187 0.3371875 7.79734375 -0.390625 7.2421875 C-0.92171875 6.83226562 -1.4528125 6.42234375 -2 6 C-1.49396008 3.83125748 -1.00016187 2.00032373 0 0 Z " fill="#E093BE" transform="translate(201,131)"/>
<path d="M0 0 C6.6 0 13.2 0 20 0 C20 0.99 20 1.98 20 3 C6.3667426 4.33257403 6.3667426 4.33257403 0 3 C0 2.01 0 1.02 0 0 Z " fill="#E48BB4" transform="translate(207,69)"/>
<path d="M0 0 C2.0625 0.4375 2.0625 0.4375 4 1 C3.01 1.495 3.01 1.495 2 2 C1.67 10.25 1.34 18.5 1 27 C0.34 26.67 -0.32 26.34 -1 26 C-1.02886751 21.85418113 -1.04675327 17.70838784 -1.0625 13.5625 C-1.07087891 12.37849609 -1.07925781 11.19449219 -1.08789062 9.97460938 C-1.09111328 8.84990234 -1.09433594 7.72519531 -1.09765625 6.56640625 C-1.10289307 5.52427979 -1.10812988 4.48215332 -1.11352539 3.40844727 C-1 1 -1 1 0 0 Z " fill="#FDEEF3" transform="translate(110,111)"/>
<path d="M0 0 C0.99 0.33 1.98 0.66 3 1 C5.22818441 1.06937062 7.45834524 1.08457084 9.6875 1.0625 C10.86699219 1.05347656 12.04648437 1.04445313 13.26171875 1.03515625 C14.16535156 1.02355469 15.06898438 1.01195313 16 1 C15.67 1.66 15.34 2.32 15 3 C1.09468379 3.17357538 1.09468379 3.17357538 -3.0625 2.125 C-5.95376433 1.67224113 -5.95376433 1.67224113 -7.5234375 3.26953125 C-9.13185886 5.1046057 -9.13185886 5.1046057 -11 8 C-11.99 7.67 -12.98 7.34 -14 7 C-14.33 7.66 -14.66 8.32 -15 9 C-14.75787346 5.73129165 -13.72467093 4.7045249 -11.4375 2.25 C-7.64814679 -0.73388683 -4.69719655 -0.46201933 0 0 Z " fill="#E574AB" transform="translate(252,111)"/>
<path d="M0 0 C1.32 0.33 2.64 0.66 4 1 C3.69127671 3.60466543 3.37818277 6.20867691 3.0625 8.8125 C2.97548828 9.55048828 2.88847656 10.28847656 2.79882812 11.04882812 C2.41783454 14.16733121 1.99630626 17.01108122 1 20 C2.32 20.33 3.64 20.66 5 21 C3.35 21.33 1.7 21.66 0 22 C0 14.74 0 7.48 0 0 Z " fill="#E39AC3" transform="translate(132,70)"/>
<path d="M0 0 C0.33 0 0.66 0 1 0 C1.8320582 5.72040011 2.12036664 11.22240116 2 17 C2.66 17 3.32 17 4 17 C3.67 18.98 3.34 20.96 3 23 C-0.2843385 19.7156615 -0.51778115 15.51088263 -1 11 C-0.88355047 7.29690488 -0.51596105 3.66750691 0 0 Z " fill="#FDECF5" transform="translate(67,72)"/>
<path d="M0 0 C0 0.99 0 1.98 0 3 C-2.22909871 3.02714735 -4.45829367 3.04646254 -6.6875 3.0625 C-7.92886719 3.07410156 -9.17023438 3.08570312 -10.44921875 3.09765625 C-13.46235454 3.01478673 -16.08275339 2.70839449 -19 2 C-19 1.67 -19 1.34 -19 1 C-16.39590255 0.83218705 -13.7917318 0.66570349 -11.1875 0.5 C-10.08051758 0.42845703 -10.08051758 0.42845703 -8.95117188 0.35546875 C-5.96175412 0.16609387 -2.99625426 0 0 0 Z " fill="#EB8BB8" transform="translate(206,69)"/>
<path d="M0 0 C-3.70416126 2.37590142 -6.92984573 2.20500286 -11.25 2.125 C-12.51328125 2.10695313 -13.7765625 2.08890625 -15.078125 2.0703125 C-16.04234375 2.04710938 -17.0065625 2.02390625 -18 2 C-18 1.34 -18 0.68 -18 0 C-17.06027344 0.01740234 -17.06027344 0.01740234 -16.1015625 0.03515625 C-14.87566406 0.04869141 -14.87566406 0.04869141 -13.625 0.0625 C-12.40683594 0.07990234 -12.40683594 0.07990234 -11.1640625 0.09765625 C-1.91761364 -0.31960227 -1.91761364 -0.31960227 0 0 Z " fill="#F27ABA" transform="translate(194,72)"/>
<path d="M0 0 C0.33 0.99 0.66 1.98 1 3 C-0.2684375 3.5259375 -0.2684375 3.5259375 -1.5625 4.0625 C-5.78944647 6.44496074 -8.72624641 9.46473355 -12 13 C-12.66 12.67 -13.32 12.34 -14 12 C-12.04761147 9.99387601 -10.08862178 7.99507567 -8.125 6 C-7.29162109 5.14148438 -7.29162109 5.14148438 -6.44140625 4.265625 C-2.2265625 0 -2.2265625 0 0 0 Z " fill="#FDF2F5" transform="translate(141,195)"/>
<path d="M0 0 C0.66 0.33 1.32 0.66 2 1 C0.92130607 1.96355244 -0.16318743 2.92061417 -1.25 3.875 C-1.85328125 4.40867187 -2.4565625 4.94234375 -3.078125 5.4921875 C-5.01478471 7.01159939 -6.69793955 8.12521703 -9 9 C-9.99 8.67 -10.98 8.34 -12 8 C-11.46890625 7.67386719 -10.9378125 7.34773438 -10.390625 7.01171875 C-6.81763269 4.80141876 -3.29917687 2.61184836 0 0 Z " fill="#DA75A9" transform="translate(284,103)"/>
<path d="M0 0 C0.99 0.33 1.98 0.66 3 1 C-3.28571429 6.57142857 -3.28571429 6.57142857 -7 7 C-7 6.34 -7 5.68 -7 5 C-5.57421875 3.67578125 -5.57421875 3.67578125 -3.6875 2.3125 C-3.07261719 1.85488281 -2.45773438 1.39726562 -1.82421875 0.92578125 C-1.22222656 0.62027344 -0.62023437 0.31476563 0 0 Z " fill="#FBEFF5" transform="translate(169,136)"/>
<path d="M0 0 C0.33 0 0.66 0 1 0 C1.74737188 5.97897503 -0.6768102 9.32379721 -4 14 C-4.33 12.68 -4.66 11.36 -5 10 C-4.01 9.67 -3.02 9.34 -2 9 C-1.19436362 6.89415562 -1.19436362 6.89415562 -0.8125 4.4375 C-0.65394531 3.61121094 -0.49539062 2.78492187 -0.33203125 1.93359375 C-0.22246094 1.29550781 -0.11289063 0.65742187 0 0 Z " fill="#FAE1ED" transform="translate(131,88)"/>
<path d="M0 0 C2.91517292 1.07401108 4.77810176 1.77810176 7 4 C5.02 4.99 5.02 4.99 3 6 C0 2.25 0 2.25 0 0 Z " fill="#E184B4" transform="translate(210,143)"/>
<path d="M0 0 C0.33 0.99 0.66 1.98 1 3 C-0.32 4.32 -1.64 5.64 -3 7 C-3.66 6.67 -4.32 6.34 -5 6 C-5.33 6.66 -5.66 7.32 -6 8 C-5.65120368 4.74456771 -4.97866739 3.98126893 -2.4375 1.75 C-1.633125 1.1725 -0.82875 0.595 0 0 Z " fill="#E879B5" transform="translate(243,112)"/>
<path d="M0 0 C0 4.24645065 -1.81750806 6.38524772 -4 10 C-4.66 9.67 -5.32 9.34 -6 9 C-4.68775452 5.06326356 -3.08089673 2.77280706 0 0 Z " fill="#FAECF4" transform="translate(161,143)"/>
<path d="M0 0 C0.66 0.33 1.32 0.66 2 1 C1.360625 1.78375 0.72125 2.5675 0.0625 3.375 C-1.98142313 5.79539281 -1.98142313 5.79539281 -3 8 C-3.99 8 -4.98 8 -6 8 C-4.55746343 4.63408134 -2.66735273 2.48952921 0 0 Z " fill="#FBEDF7" transform="translate(79,219)"/>
<path d="M0 0 C0.66 0.66 1.32 1.32 2 2 C1.38125 2.598125 0.7625 3.19625 0.125 3.8125 C-2.13676954 6.00811144 -2.13676954 6.00811144 -4 9 C-4 7.02 -4 5.04 -4 3 C-3.01 2.67 -2.02 2.34 -1 2 C-0.67 1.34 -0.34 0.68 0 0 Z " fill="#FBE8F3" transform="translate(134,225)"/>
<path d="" fill="#FFFFFF" transform="translate(0,0)"/>
<path d="" fill="#FFFFFF" transform="translate(0,0)"/>
<path d="" fill="#FFFFFF" transform="translate(0,0)"/>
<path d="" fill="#FFFFFF" transform="translate(0,0)"/>
<path d="" fill="#FFFFFF" transform="translate(0,0)"/>
<path d="" fill="#FFFFFF" transform="translate(0,0)"/>
<path d="" fill="#FFFFFF" transform="translate(0,0)"/>
<path d="" fill="#FFFFFF" transform="translate(0,0)"/>
<path d="" fill="#FFFFFF" transform="translate(0,0)"/>
<path d="" fill="#FFFFFF" transform="translate(0,0)"/>
<path d="" fill="#FFFFFF" transform="translate(0,0)"/>
<path d="" fill="#FFFFFF" transform="translate(0,0)"/>
<path d="" fill="#FFFFFF" transform="translate(0,0)"/>
<path d="" fill="#FFFFFF" transform="translate(0,0)"/>
<path d="" fill="#FFFFFF" transform="translate(0,0)"/>
<path d="" fill="#FFFFFF" transform="translate(0,0)"/>
<path d="" fill="#FFFFFF" transform="translate(0,0)"/>
<path d="" fill="#FFFFFF" transform="translate(0,0)"/>
<path d="" fill="#FFFFFF" transform="translate(0,0)"/>
<path d="" fill="#FFFFFF" transform="translate(0,0)"/>
<path d="" fill="#FFFFFF" transform="translate(0,0)"/>
<path d="" fill="#FFFFFF" transform="translate(0,0)"/>
<path d="" fill="#FFFFFF" transform="translate(0,0)"/>
<path d="" fill="#FFFFFF" transform="translate(0,0)"/>
<path d="" fill="#FFFFFF" transform="translate(0,0)"/>
<path d="" fill="#FFFFFF" transform="translate(0,0)"/>
<path d="" fill="#FFFFFF" transform="translate(0,0)"/>
<path d="" fill="#FFFFFF" transform="translate(0,0)"/>
<path d="" fill="#FFFFFF" transform="translate(0,0)"/>
<path d="" fill="#FFFFFF" transform="translate(0,0)"/>
<path d="" fill="#FFFFFF" transform="translate(0,0)"/>
<path d="" fill="#FFFFFF" transform="translate(0,0)"/>
<path d="" fill="#FFFFFF" transform="translate(0,0)"/>
<path d="" fill="#FFFFFF" transform="translate(0,0)"/>
<path d="" fill="#FFFFFF" transform="translate(0,0)"/>
<path d="" fill="#FFFFFF" transform="translate(0,0)"/>
<path d="" fill="#FFFFFF" transform="translate(0,0)"/>
<path d="" fill="#FFFFFF" transform="translate(0,0)"/>
<path d="" fill="#FFFFFF" transform="translate(0,0)"/>
<path d="" fill="#FFFFFF" transform="translate(0,0)"/>
<path d="" fill="#FFFFFF" transform="translate(0,0)"/>
<path d="" fill="#FFFFFF" transform="translate(0,0)"/>
<path d="" fill="#FFFFFF" transform="translate(0,0)"/>
<path d="" fill="#FFFFFF" transform="translate(0,0)"/>
<path d="" fill="#FFFFFF" transform="translate(0,0)"/>
<path d="" fill="#FFFFFF" transform="translate(0,0)"/>
<path d="" fill="#FFFFFF" transform="translate(0,0)"/>
<path d="" fill="#FFFFFF" transform="translate(0,0)"/>
<path d="" fill="#FFFFFF" transform="translate(0,0)"/>
<path d="" fill="#FFFFFF" transform="translate(0,0)"/>
<path d="" fill="#FFFFFF" transform="translate(0,0)"/>
<path d="" fill="#FFFFFF" transform="translate(0,0)"/>
<path d="" fill="#FFFFFF" transform="translate(0,0)"/>
<path d="" fill="#FFFFFF" transform="translate(0,0)"/>
<path d="" fill="#FFFFFF" transform="translate(0,0)"/>
<path d="" fill="#FFFFFF" transform="translate(0,0)"/>
<path d="" fill="#FFFFFF" transform="translate(0,0)"/>
<path d="" fill="#FFFFFF" transform="translate(0,0)"/>
<path d="" fill="#FFFFFF" transform="translate(0,0)"/>
<path d="" fill="#FFFFFF" transform="translate(0,0)"/>
<path d="" fill="#FFFFFF" transform="translate(0,0)"/>
<path d="" fill="#FFFFFF" transform="translate(0,0)"/>
<path d="" fill="#FFFFFF" transform="translate(0,0)"/>
<path d="" fill="#FFFFFF" transform="translate(0,0)"/>
<path d="" fill="#FFFFFF" transform="translate(0,0)"/>
<path d="" fill="#FFFFFF" transform="translate(0,0)"/>
<path d="" fill="#FFFFFF" transform="translate(0,0)"/>
<path d="" fill="#FFFFFF" transform="translate(0,0)"/>
<path d="" fill="#FFFFFF" transform="translate(0,0)"/>
<path d="" fill="#FFFFFF" transform="translate(0,0)"/>
<path d="" fill="#FFFFFF" transform="translate(0,0)"/>
<path d="" fill="#FFFFFF" transform="translate(0,0)"/>
</svg>
